<svg xmlns="http://www.w3.org/2000/svg" width="1200" height="900" viewBox="0 0 1200 900" role="img" aria-label="Business illustration">
  <defs>
    <linearGradient id="g" x1="0" y1="0" x2="1" y2="1">
      <stop offset="0" stop-color="#f8fafc"/>
      <stop offset="1" stop-color="#e2e8f0"/>
    </linearGradient>
  </defs>
  <rect width="1200" height="900" fill="url(#g)"/>
  <rect x="90" y="90" width="1020" height="720" rx="28" fill="#ffffff" stroke="#cbd5e1" stroke-width="6"/>

  <g transform="translate(140, 170)">
    <g transform="translate(0, 60)" fill="none" stroke="#94a3b8" stroke-width="10" opacity="0.70" stroke-linecap="round" stroke-linejoin="round">
      <rect x="0" y="0" width="920" height="520" rx="26"/>
      <path d="M90 390l210-190 170 150 150-120 230 220"/>
      <circle cx="740" cy="160" r="40"/>
      <path d="M120 120h220"/>
      <path d="M120 180h160"/>
    </g>

    <!-- Subtle icon row -->
    <g transform="translate(0, 620)" opacity="0.9">
      <rect width="920" height="120" rx="20" fill="#0f172a" opacity="0.05" />
      <g transform="translate(36, 28)" fill="none" stroke="#1e3a8a" stroke-width="10" stroke-linecap="round" stroke-linejoin="round" opacity="0.8">
        <path d="M30 60V20h60v40" />
        <path d="M30 20l30-18 30 18" />
        <path d="M150 60V12h86v48" />
        <path d="M150 12l43-18 43 18" />
        <path d="M300 60V20h90v40" />
        <path d="M300 20l45-18 45 18" />
      </g>
    </g>
  </g>
</svg>
