<svg xmlns="http://www.w3.org/2000/svg" width="1200" height="900" viewBox="0 0 1200 900" role="img" aria-label="Electrical supplier hero illustration">
  <defs>
    <linearGradient id="bg" x1="0" y1="0" x2="1" y2="1">
      <stop offset="0" stop-color="#0f172a" />
      <stop offset="1" stop-color="#1e3a8a" />
    </linearGradient>
    <linearGradient id="accent" x1="0" y1="0" x2="1" y2="0">
      <stop offset="0" stop-color="#60a5fa" />
      <stop offset="1" stop-color="#22c55e" />
    </linearGradient>
  </defs>

  <rect width="1200" height="900" fill="url(#bg)" />

  <g opacity="0.12" fill="#ffffff">
    <circle cx="980" cy="180" r="150" />
    <circle cx="1030" cy="260" r="100" />
    <circle cx="220" cy="760" r="190" />
  </g>

  <rect x="80" y="120" width="16" height="660" fill="url(#accent)" rx="8" opacity="0.9" />

  <!-- Abstract circuit lines (decorative) -->
  <g opacity="0.55" fill="none" stroke="#e2e8f0" stroke-width="6" stroke-linecap="round" stroke-linejoin="round">
    <path d="M160 280h260c40 0 60 20 60 60v80" />
    <path d="M160 420h220c60 0 90 30 90 90v50" />
    <path d="M160 560h300c60 0 90-30 90-90v-40" />
    <circle cx="160" cy="280" r="10" fill="#e2e8f0" />
    <circle cx="160" cy="420" r="10" fill="#e2e8f0" />
    <circle cx="160" cy="560" r="10" fill="#e2e8f0" />
    <circle cx="480" cy="420" r="10" fill="#e2e8f0" />
    <circle cx="470" cy="600" r="10" fill="#e2e8f0" />
  </g>

  <!-- Simple dashboard card (decorative) -->
  <g transform="translate(640, 250)">
    <rect width="460" height="360" rx="22" fill="#ffffff" opacity="0.10" />
    <rect x="26" y="28" width="220" height="18" rx="9" fill="#ffffff" opacity="0.28" />
    <rect x="26" y="70" width="180" height="14" rx="7" fill="#ffffff" opacity="0.18" />

    <g transform="translate(26, 130)" opacity="0.85">
      <rect width="120" height="120" rx="18" fill="#ffffff" opacity="0.10" />
      <rect x="150" width="120" height="120" rx="18" fill="#ffffff" opacity="0.10" />
      <rect x="300" width="120" height="120" rx="18" fill="#ffffff" opacity="0.10" />

      <path d="M28 92l20-22 18 14 22-30 24 38" fill="none" stroke="url(#accent)" stroke-width="8" stroke-linecap="round" stroke-linejoin="round" />
      <path d="M178 88l24-34 22 20 20-16 22 30" fill="none" stroke="url(#accent)" stroke-width="8" stroke-linecap="round" stroke-linejoin="round" />
      <path d="M328 88l18-18 20 16 20-28 22 38" fill="none" stroke="url(#accent)" stroke-width="8" stroke-linecap="round" stroke-linejoin="round" />
    </g>
  </g>
</svg>
