<svg xmlns="http://www.w3.org/2000/svg" width="1200" height="900" viewBox="0 0 1200 900" role="img" aria-label="Location illustration">
  <defs>
    <linearGradient id="bg" x1="0" y1="0" x2="1" y2="1">
      <stop offset="0" stop-color="#e2e8f0"/>
      <stop offset="1" stop-color="#f8fafc"/>
    </linearGradient>
  </defs>
  <rect width="1200" height="900" fill="url(#bg)"/>
  <g opacity="0.8" stroke="#94a3b8" stroke-width="6" fill="none">
    <path d="M120 260c160-140 280 240 460 120 120-80 180-40 320 120 100 110 170-120 300-40"/>
    <path d="M160 640c220-180 260 60 420-40 220-140 260 60 480-20"/>
    <path d="M260 220v540"/>
    <path d="M520 160v620"/>
    <path d="M820 180v600"/>
  </g>
  <g>
    <path d="M600 320c-80 0-145 66-145 148 0 120 145 260 145 260s145-140 145-260c0-82-65-148-145-148z" fill="#1e3a8a" opacity="0.9"/>
    <circle cx="600" cy="468" r="54" fill="#ffffff" opacity="0.92"/>
  </g>
</svg>
